<?xml version="1.0" encoding="UTF-8" standalone="no"?>
<!-- Created with Inkscape (http://www.inkscape.org/) -->

<svg
   width="100mm"
   height="100mm"
   viewBox="0 0 100 100"
   version="1.1"
   id="svg5"
   inkscape:version="1.1.2 (08b2f3d93c, 2022-04-05)"
   sodipodi:docname="eds-pseudo-blue.svg"
   xmlns:inkscape="http://www.inkscape.org/namespaces/inkscape"
   xmlns:sodipodi="http://sodipodi.sourceforge.net/DTD/sodipodi-0.dtd"
   xmlns="http://www.w3.org/2000/svg"
   xmlns:svg="http://www.w3.org/2000/svg">
  <sodipodi:namedview
     id="namedview7"
     pagecolor="#ffffff"
     bordercolor="#666666"
     borderopacity="1.0"
     inkscape:pageshadow="2"
     inkscape:pageopacity="0.0"
     inkscape:pagecheckerboard="true"
     inkscape:document-units="mm"
     showgrid="false"
     showguides="true"
     inkscape:guide-bbox="true"
     inkscape:snap-global="true"
     inkscape:zoom="1.5037598"
     inkscape:cx="187.86245"
     inkscape:cy="220.11494"
     inkscape:window-width="1920"
     inkscape:window-height="1163"
     inkscape:window-x="0"
     inkscape:window-y="0"
     inkscape:window-maximized="1"
     inkscape:current-layer="layer1" />
  <defs
     id="defs2" />
  <g
     inkscape:label="Layer 1"
     inkscape:groupmode="layer"
     id="layer1">
    <g
       aria-label="E"
       id="text7586"
       style="font-size:10.5833px;line-height:1.25;stroke-width:0.264583;fill:#006bb6;fill-opacity:1"
       transform="matrix(5.1901158,0,0,5.1901158,-39.282864,-56.255025)">
      <path
         d="M 13.083107,19.594398 H 8.2772137 v -7.715266 h 4.8058933 v 1.343583 H 9.8016636 v 1.663976 h 2.9713854 v 1.343582 H 9.8016636 v 2.020543 h 3.2814434 z"
         style="font-weight:bold;font-family:'DejaVu Sans Mono';-inkscape-font-specification:'DejaVu Sans Mono Bold';fill:#006bb6;fill-opacity:1"
         id="path49410" />
    </g>
    <g
       aria-label="D"
       id="text19044"
       style="font-size:10.5833px;line-height:1.25;stroke-width:0.264583;fill:#006bb6;fill-opacity:1"
       transform="matrix(5.1901158,0,0,5.1901158,-147.5962,-39.741149)">
      <path
         d="m 37.084633,10.071927 v 4.96609 h 0.413411 q 0.899167,0 1.281571,-0.563272 0.382404,-0.568439 0.382404,-1.927525 0,-1.34875 -0.382404,-1.912021 -0.382404,-0.563272 -1.281571,-0.563272 z m -1.52445,-1.3745885 h 1.632971 q 1.891351,0 2.723339,0.9043347 0.831988,0.8991668 0.831988,2.9455468 0,2.051548 -0.831988,2.961051 -0.831988,0.904334 -2.723339,0.904334 h -1.632971 z"
         style="font-weight:bold;font-family:'DejaVu Sans Mono';-inkscape-font-specification:'DejaVu Sans Mono Bold';fill:#006bb6;fill-opacity:1"
         id="path49431" />
    </g>
    <g
       aria-label="S"
       id="text20500"
       style="font-size:10.5833px;line-height:1.25;stroke-width:0.264583;fill:#006bb6;fill-opacity:1"
       transform="matrix(5.1901158,0,0,5.1901158,-169.8953,-59.482585)">
      <path
         d="m 48.014003,26.264485 q -1.152381,-0.439248 -1.560623,-0.919838 -0.408243,-0.485756 -0.408243,-1.302242 0,-1.049028 0.671792,-1.648472 0.671791,-0.599445 1.844842,-0.599445 0.532266,0 1.064532,0.124023 0.532265,0.118855 1.054195,0.356566 v 1.488277 q -0.490924,-0.346231 -0.997352,-0.527098 -0.506427,-0.180867 -1.002519,-0.180867 -0.552936,0 -0.847491,0.222208 -0.294555,0.222208 -0.294555,0.635618 0,0.320393 0.211873,0.532265 0.21704,0.206705 0.899167,0.459919 l 0.656289,0.248046 q 0.930173,0.341064 1.369421,0.904335 0.439248,0.563271 0.439248,1.421097 0,1.167884 -0.692462,1.746658 -0.687294,0.573607 -2.082554,0.573607 -0.573606,0 -1.15238,-0.139526 -0.573607,-0.134358 -1.11104,-0.403075 v -1.576126 q 0.60978,0.43408 1.178219,0.645953 0.573606,0.211873 1.13171,0.211873 0.563271,0 0.873329,-0.253214 0.310058,-0.258381 0.310058,-0.7183 0,-0.346231 -0.206705,-0.604612 -0.206705,-0.263549 -0.599445,-0.413411 z"
         style="font-weight:bold;font-family:'DejaVu Sans Mono';-inkscape-font-specification:'DejaVu Sans Mono Bold';fill:#006bb6;fill-opacity:1"
         id="path49452" />
    </g>
    <rect
       style="fill:#006bb6;fill-opacity:1;stroke-width:0.277927"
       id="rect49671"
       width="28.207262"
       height="45.057423"
       x="67.921471"
       y="3.1761394" />
    <rect
       style="fill:#006bb6;fill-opacity:1;stroke-width:0.423453"
       id="rect49671-2"
       width="61.856857"
       height="47.696453"
       x="3.218915"
       y="49.52816" />
  </g>
</svg>
