<?xml version="1.0" encoding="UTF-8" standalone="no"?>
<!-- Created with Inkscape (http://www.inkscape.org/) -->

<svg
   width="100mm"
   height="100mm"
   viewBox="0 0 100 100"
   version="1.1"
   id="svg5"
   inkscape:version="1.1.2 (08b2f3d93c, 2022-04-05)"
   sodipodi:docname="eds-pseudo-blue.svg"
   inkscape:export-filename="/home/basile/Desktop/eds-pseudo-blue.png"
   inkscape:export-xdpi="82.868202"
   inkscape:export-ydpi="82.868202"
   xmlns:inkscape="http://www.inkscape.org/namespaces/inkscape"
   xmlns:sodipodi="http://sodipodi.sourceforge.net/DTD/sodipodi-0.dtd"
   xmlns="http://www.w3.org/2000/svg"
   xmlns:svg="http://www.w3.org/2000/svg">
  <sodipodi:namedview
     id="namedview7"
     pagecolor="#ffffff"
     bordercolor="#666666"
     borderopacity="1.0"
     inkscape:pageshadow="2"
     inkscape:pageopacity="0.0"
     inkscape:pagecheckerboard="true"
     inkscape:document-units="mm"
     showgrid="false"
     showguides="true"
     inkscape:guide-bbox="true"
     inkscape:snap-global="true"
     inkscape:zoom="1.5037598"
     inkscape:cx="197.17245"
     inkscape:cy="99.749973"
     inkscape:window-width="1920"
     inkscape:window-height="1163"
     inkscape:window-x="0"
     inkscape:window-y="0"
     inkscape:window-maximized="1"
     inkscape:current-layer="layer1" />
  <defs
     id="defs2" />
  <g
     inkscape:label="Layer 1"
     inkscape:groupmode="layer"
     id="layer1">
    <g
       aria-label="E"
       id="text7586"
       style="font-size:10.5833px;line-height:1.25;stroke-width:0.264583;fill:#006bb6;fill-opacity:1"
       transform="matrix(5.1901158,0,0,5.1901158,-39.282864,-56.255025)">
      <path
         d="M 13.083107,19.594398 H 8.2772137 v -7.715266 h 4.8058933 v 1.343583 H 9.8016636 v 1.663976 h 2.9713854 v 1.343582 H 9.8016636 v 2.020543 h 3.2814434 z"
         style="font-weight:bold;font-family:'DejaVu Sans Mono';-inkscape-font-specification:'DejaVu Sans Mono Bold';fill:#006bb6;fill-opacity:1"
         id="path49410" />
    </g>
    <g
       aria-label="D"
       id="text19044"
       style="font-size:10.5833px;line-height:1.25;stroke-width:0.264583;fill:#006bb6;fill-opacity:1"
       transform="matrix(5.1901158,0,0,5.1901158,-147.5962,-39.741149)">
      <path
         d="m 37.084633,10.071927 v 4.96609 h 0.413411 q 0.899167,0 1.281571,-0.563272 0.382404,-0.568439 0.382404,-1.927525 0,-1.34875 -0.382404,-1.912021 -0.382404,-0.563272 -1.281571,-0.563272 z m -1.52445,-1.3745885 h 1.632971 q 1.891351,0 2.723339,0.9043347 0.831988,0.8991668 0.831988,2.9455468 0,2.051548 -0.831988,2.961051 -0.831988,0.904334 -2.723339,0.904334 h -1.632971 z"
         style="font-weight:bold;font-family:'DejaVu Sans Mono';-inkscape-font-specification:'DejaVu Sans Mono Bold';fill:#006bb6;fill-opacity:1"
         id="path49431" />
    </g>
    <g
       aria-label="S"
       id="text20500"
       style="font-size:10.5833px;line-height:1.25;stroke-width:0.264583;fill:#006bb6;fill-opacity:1"
       transform="matrix(5.1901158,0,0,5.1901158,-169.8953,-59.482585)">
      <path
         d="m 48.014003,26.264485 q -1.152381,-0.439248 -1.560623,-0.919838 -0.408243,-0.485756 -0.408243,-1.302242 0,-1.049028 0.671792,-1.648472 0.671791,-0.599445 1.844842,-0.599445 0.532266,0 1.064532,0.124023 0.532265,0.118855 1.054195,0.356566 v 1.488277 q -0.490924,-0.346231 -0.997352,-0.527098 -0.506427,-0.180867 -1.002519,-0.180867 -0.552936,0 -0.847491,0.222208 -0.294555,0.222208 -0.294555,0.635618 0,0.320393 0.211873,0.532265 0.21704,0.206705 0.899167,0.459919 l 0.656289,0.248046 q 0.930173,0.341064 1.369421,0.904335 0.439248,0.563271 0.439248,1.421097 0,1.167884 -0.692462,1.746658 -0.687294,0.573607 -2.082554,0.573607 -0.573606,0 -1.15238,-0.139526 -0.573607,-0.134358 -1.11104,-0.403075 v -1.576126 q 0.60978,0.43408 1.178219,0.645953 0.573606,0.211873 1.13171,0.211873 0.563271,0 0.873329,-0.253214 0.310058,-0.258381 0.310058,-0.7183 0,-0.346231 -0.206705,-0.604612 -0.206705,-0.263549 -0.599445,-0.413411 z"
         style="font-weight:bold;font-family:'DejaVu Sans Mono';-inkscape-font-specification:'DejaVu Sans Mono Bold';fill:#006bb6;fill-opacity:1"
         id="path49452" />
    </g>
    <path
       id="rect49671"
       style="fill:#006bb6;fill-opacity:1;stroke-width:0.270434"
       d="m 69.421948,3.1761394 c 0,0 6.752737,-0.5577257 10.059747,-0.4660514 5.990559,0.3154221 11.74607,0.05625 17.300431,2.5739625 0,0 -1.106075,11.6958925 -1.114374,19.2072165 -0.0083,7.511324 0.460981,23.742295 0.460981,23.742295 0,0 -6.281784,0.569059 -9.14758,0.444007 -2.865796,-0.125052 -5.052865,0.377841 -7.992177,0.277353 -2.939313,-0.100488 -9.567028,-0.72136 -9.567028,-0.72136 0,0 0.196356,-4.486529 -0.09438,-9.446203 C 68.89956,31.486039 67.934014,22.295751 67.970475,17.820048 68.031704,10.30407 69.421948,3.1761394 69.421948,3.1761394 Z"
       sodipodi:nodetypes="ccczczzcssc" />
    <path
       id="rect49671-2"
       style="fill:#006bb6;fill-opacity:1;stroke:none;stroke-width:0.414184;stroke-opacity:1"
       d="m 3.218915,49.52816 c 0,0 9.162947,0.97722 19.027778,0.94703 4.548363,-0.01392 13.730065,-1.13635 21.872655,-1.501741 9.517674,-0.427097 18.278305,0.554711 18.278305,0.554711 0,0 1.164618,11.547826 1.24242,19.508999 0.0778,7.961172 -1.492263,26.210596 -1.492263,26.210596 0,0 -6.978783,0.949654 -16.844552,0.992274 -9.865767,0.04262 -42.084343,0.984584 -42.084343,0.984584 0,0 0.9705978,-19.267838 0.9260521,-27.22379 C 4.1004212,62.044872 3.218915,49.52816 3.218915,49.52816 Z"
       sodipodi:nodetypes="cssczczczc" />
  </g>
</svg>
